<?xml version="1.0" encoding="UTF-8"?><svg id="Calque_1" xmlns="http://www.w3.org/2000/svg" xmlns:xlink="http://www.w3.org/1999/xlink" viewBox="0 0 716.54 200.73"><defs><style>.cls-1,.cls-2{fill:none;}.cls-3{fill:#fff;}.cls-4{fill:#ee756d;}.cls-2{stroke:#010101;stroke-miterlimit:10;stroke-width:.5px;}</style><clipPath id="clippath"><rect class="cls-1" width="716.54" height="200.73"/></clipPath></defs><line class="cls-2" x1="459.07" y1="72.94" x2="458.96" y2="72.94"/><path class="cls-3" d="m93.61,9.86h206.77c2.06,0,4.15.2,6.25.61,2.25.45,4.4,1.12,6.43,1.97l.25.11.37.17c5.35,2.4,9.83,6.19,13.09,10.82,3.45,4.9,5.54,10.75,5.85,16.92h2.67V6.89H90.74c-1.76.02-3.52.17-5.3.44l-.39.06-.41.06c-1.54.25-3.09.59-4.63,1.03-15.03,4.27-25.81,16.28-29.2,30.49h-.02l-.05.23c-.03.11-.05.25-.09.42-.02.08-.03.16-.05.23-.05.27-.11.56-.17.86-.02.09-.03.2-.06.3,0,.08-.02.16-.03.22-.03.12-.05.23-.08.34-.02.09-.03.2-.05.3-.03.16-.05.31-.08.47-.02.06-.02.12-.03.19v.02c-.27,1.73-.41,3.48-.44,5.24v1.56c.05,3.54.56,7.14,1.59,10.73,1.64,5.79,4.43,10.93,8.03,15.27h.02c.05.06.09.11.12.17l.05.05.36.41c1.23,1.43,2.57,2.79,3.98,4.02.11.09.2.19.3.27.06.05.12.11.19.16.02.02.03.03.05.03l8.86,7.67s.05.05.06.06l2.45,2.11,6.63,5.76,2.7,2.34,10.29,8.92,3.01,2.6,1.51,1.33h.02l4.34,3.77c.08.06.17.12.25.2,1.19.87,2.31,1.84,3.35,2.9.02,0,.05.02.06.05,6.53,6.49,10.17,15.71,9.4,25.36l-.06.73-.02.16c-.09.95-.25,1.89-.42,2.84-3.01,15.36-16.49,26.01-31.58,26.03h-.37c-1.95-.03-3.93-.23-5.91-.61-14.29-2.81-24.49-14.65-25.86-28.42h-2.73v34.33h2.92v-6.64c0-.75.12-1.48.36-2.15.02-.05.03-.09.05-.14.05-.16.11-.3.17-.44.05-.14.12-.28.2-.42.06-.12.12-.23.2-.34.02-.06.06-.14.11-.22,1.03-1.48,2.73-2.46,4.68-2.46,1.54,0,2.96.64,3.98,1.65.47.44.94.84,1.42,1.26,5.26,4.48,11.7,7.7,18.97,9.12.48.09.98.17,1.45.25l.22.03s.11.02.16.02c1.89.31,3.74.47,5.6.48h1.28c10.57-.14,20.49-4.34,27.95-11.32.09-.08.19-.17.28-.25l.5-.5c5.51-5.44,9.56-12.45,11.35-20.52v-.02c.05-.11.08-.23.09-.36.02-.09.05-.19.06-.3,0-.03.02-.05.02-.08.03-.16.06-.33.09-.48.03-.09.03-.17.05-.25,0-.09.02-.17.03-.25h.02c.05-.33.11-.66.14-.87.02-.09.03-.17.05-.27,0-.03.02-.06,0-.09.33-2.11.48-4.21.48-6.29,0-9.42-3.21-18.34-8.77-25.5,0,0-.03-.05-.11-.14-.06-.09-.17-.23-.31-.41-.16-.22-.37-.47-.64-.78-.2-.27-.42-.51-.64-.76-.23-.27-.5-.56-.78-.86-.5-.51-1-1.03-1.53-1.53-.2-.2-.41-.39-.62-.59-.23-.2-.47-.41-.72-.61-.11-.09-.25-.2-.39-.33-.42-.34-.97-.81-1.59-1.36-.05-.05-.09-.08-.14-.11-1.97-1.7-4.69-4.09-7.16-6.25-.36-.31-.7-.62-1.04-.92-.39-.33-.76-.67-1.12-.98-.42-.36-.81-.7-1.17-1.03-.42-.36-.8-.7-1.14-1-.27-.23-.51-.45-.72-.62-.53-.47-.83-.73-.83-.73l-2.29-1.98-.94-.83-1.76-1.54-3.21-2.79-.41-.34-9.11-7.94-.72-.62-.3-.27-.41-.34-.58-.5-8.17-7.13s-.03-.02-.05-.03c-5.49-4.09-9.73-9.93-11.74-17.03-.81-2.87-1.22-5.76-1.23-8.61v-1.03h.02c.33-13.18,8.8-25.24,21.76-29.66l.41-.14.09-.03c.39-.12.78-.25,1.17-.36,2.07-.59,4.16-.97,6.22-1.12l1.08-.06Z"/><path class="cls-3" d="m378.81,40.45c0,.27,0,.53-.02.78-.3,5.83-3.85,10.79-8.89,13.1,1.09-1.37,1.73-3.1,1.73-4.99,0-2.79-1.42-5.26-3.56-6.71-.34-.23-.69-.44-1.06-.61h-.02c-.16.03-.3.03-.45.03-1.25,0-2.43-.28-3.48-.8h-.02s-.03-.02-.05-.03c-2.7-1.31-4.55-4.09-4.55-7.28,0-4.48,3.62-8.11,8.09-8.11.53,0,1.05.05,1.53.16.56.09,1.11.27,1.62.48.25.09.48.22.72.34,4.99,2.51,8.39,7.67,8.39,13.63Z"/><path class="cls-3" d="m425.25,175.95v2.62h-28.21v-2.62h6.43V41.14c0-3.52-2.25-6.52-5.38-7.64v-2.65c1.58.41,3.23.62,4.93.62.16,0,.3,0,.45-.02,6.22-.12,11.74-3.12,15.28-7.72v152.22h6.5Z"/><path class="cls-3" d="m499.85,163.15c-4.99,9.06-14.58,15.24-25.64,15.39-.14.02-.3.02-.45.02-5.33,0-10.36-1.4-14.69-3.88-9.03-5.1-15.13-14.8-15.13-25.94V41.23c0-3.42-2.12-6.35-5.12-7.53v-2.79c1.5.37,3.07.56,4.69.56.14,0,.28,0,.42-.02,6.13-.11,11.57-3.03,15.13-7.5v48.99h34.86v2.62h-34.86v76.87c0,9.45,6.43,17.39,15.14,19.7,1.68.45,3.45.69,5.26.69,7.88,0,14.71-4.46,18.09-11l2.29,1.33Z"/><path class="cls-3" d="m599.03,137.89c-.45,2.2-1.06,4.32-1.82,6.36-3.26,8.94-9.26,16.35-16.86,21.46-7.19,4.88-15.83,7.72-24.89,7.86-.31.02-.61.02-.92.02-.2,0-.41,0-.61-.02-2.17-.03-4.35-.33-6.55-.9-.81-.22-1.62-.47-2.4-.75-11.09-3.95-19.71-14.43-23.99-27.67-2.81-8.64-3.73-18.47-2.26-28.4.17-1.12.36-2.23.59-3.32h82.1c-.2-.89-.44-1.76-.69-2.62-3.42-11.78-10.62-22.04-20.38-28.81-3.24-2.26-6.78-4.13-10.56-5.54-2.23-.84-4.55-1.53-6.94-2.03-6.07-1.28-12.1-1.31-17.87-.27-2.81.51-5.57,1.28-8.22,2.29-11.48,4.32-21.26,13.07-27.17,24.7-1.53,3.03-2.81,6.24-3.77,9.64-.53,1.76-.95,3.57-1.29,5.43-1.86,10.04-.9,19.99,2.26,28.92.8,2.25,1.73,4.43,2.81,6.53,6.8,13.43,18.97,23.61,34.09,26.79.44.09.86.17,1.29.25,2.79.5,5.58.75,8.34.75,9.79,0,19.14-3.1,27.03-8.59,8.69-6.02,15.61-14.93,19.4-25.73.73-2.06,1.34-4.18,1.82-6.36h-2.54Zm-72.84-43.25c4.8-7.88,11.39-13.57,18.78-16.22,5.19-1.86,10.78-2.2,16.41-.72,7.49,1.95,13.99,6.85,18.97,13.62.56.76,1.11,1.56,1.62,2.39,3.06,4.74,5.41,10.25,6.89,16.2h-68.95c1.39-5.68,3.56-10.82,6.29-15.27Z"/><path class="cls-3" d="m685.12,102.75c0,2.46-.3,4.85-.86,7.14-.22.89-.48,1.76-.78,2.62h-18.56c.84-.8,1.62-1.68,2.29-2.62,2.5-3.38,3.96-7.55,3.96-12.07,0-11.17-8.95-20.21-20.07-20.38h-.31c-5.18.08-9.87,2.07-13.43,5.32v93.2h6.11v2.62h-27.76v-2.62h6.5v-100.39h-6.5v-2.62h21.65v6.24c1.84-1.45,3.87-2.67,6.04-3.63h.05c2.25-1.05,4.65-1.81,7.17-2.25.06-.02.11-.02.17-.03,1.43-.22,2.93-.31,4.43-.31,4.37,0,8.52.92,12.27,2.59.06.02.12.05.19.08,10.29,4.69,17.44,15.07,17.44,27.12Z"/><path class="cls-4" d="m176.28,75.56c-.17.06-.33.12-.47.17.12-.08.25-.12.39-.17h.08Z"/><path class="cls-3" d="m225.45,175.96v2.62h-28.21v-2.62h6.3v-80.29c-.34-7.56-5.02-14.35-12.02-17.31-.33-.14-1.48-.58-1.48-.58-.78-.25-1.61-.48-2.43-.64-6.1-1.2-12.1.55-16.52,4.26v94.56h6.44v2.62h-28.21v-2.62h6.5V36.15c0-3.51-2.23-6.49-5.35-7.63v-2.67c1.2.56,2.46,1.01,3.77,1.33.51.12,1.04.23,1.58.31,1.01.17,2.06.25,3.12.25.14,0,.28,0,.42-.02,4.41-.08,8.47-1.62,11.73-4.13v54.45c1.23-.75,2.51-1.4,3.84-1.97,0,0,.14-.06.37-.14.08-.03.17-.06.27-.11.08-.03.16-.06.25-.09.14-.05.3-.11.47-.17.48-.19,1.03-.39,1.51-.55.31-.11.59-.19.81-.25,3.6-1.05,7.42-1.45,11.32-1.11,0,0,.17.02.5.05.11.02.2.02.34.03.05,0,.14.02.2.03.08.02.14.02.22.03.98.14,2.45.37,4.07.76.23.06.47.12.7.19.3.09.58.17.87.27.22.06.44.14.66.22.31.09.62.2.92.33.31.11.61.23.9.36.08.03.16.06.23.11,11.6,4.87,19.21,16.27,19.28,28.85v71.07h6.63Z"/><path class="cls-4" d="m177.79,75.01c-.48.16-1.03.36-1.51.55h-.08c.53-.2,1.06-.39,1.59-.55Z"/><path class="cls-3" d="m332.74,137.88c0,.08-.03.16-.05.23-.44,2.12-1.03,4.16-1.76,6.13-5.41,14.8-18.37,25.42-33.61,28.43-2.57.51-5.21.83-7.91.86-.37.03-.76.03-1.15.03-.19,0-.39,0-.58-.02-2.18-.03-4.38-.33-6.6-.9-7.58-1.98-14.15-6.99-19.14-13.88-3.06-4.21-5.51-9.14-7.25-14.52-.28-.89-.55-1.78-.8-2.68l-.16-.55c-.84-3.29-1.43-6.72-1.75-10.25-.44-4.85-.31-9.89.44-14.94.17-1.12.36-2.21.59-3.31h82.1c-.2-.87-.44-1.75-.69-2.62-.5-1.73-1.08-3.42-1.75-5.07-5.32-13.38-15.72-24.24-29.15-29.27-2.01-.76-4.09-1.39-6.22-1.87-.25-.06-.51-.12-.76-.17-.97-.2-1.95-.37-2.92-.51h-.03c-5.57-.81-11.09-.59-16.35.55-2.34.48-4.62,1.15-6.85,2.01-2.95,1.11-5.79,2.51-8.47,4.2l-.75.48c-10.12,6.55-18.01,16.91-21.68,29.66-.51,1.76-.94,3.56-1.28,5.41-.97,5.22-1.17,10.42-.7,15.46.42,4.66,1.43,9.19,2.95,13.48,3.99,11.28,11.54,20.93,21.46,27.09,4.66,2.92,9.86,5.05,15.46,6.22,6.8,1.42,13.54,1.29,19.92-.17,15.63-3.54,29.01-15.05,35.37-31.11.28-.67.53-1.34.76-2.03.73-2.06,1.34-4.18,1.82-6.36h-2.54Zm-72.85-43.26c.66-1.06,1.33-2.09,2.06-3.07,8.27-11.4,20.59-17.16,33.16-13.87.75.2,1.5.42,2.21.69,7.41,2.56,13.72,8.05,18.37,15.33,3.06,4.74,5.41,10.25,6.88,16.2h-68.97c1.4-5.69,3.56-10.84,6.29-15.28Z"/></svg>